<?xml version="1.0" encoding="UTF-8"?>
<!-- Created with Inkscape (http://www.inkscape.org/) -->
<svg width="32mm" height="32.009mm" version="1.1" viewBox="0 0 32 32.009175" xmlns="http://www.w3.org/2000/svg" xmlns:cc="http://creativecommons.org/ns#" xmlns:dc="http://purl.org/dc/elements/1.1/" xmlns:rdf="http://www.w3.org/1999/02/22-rdf-syntax-ns#" xmlns:xlink="http://www.w3.org/1999/xlink">
 <defs>
  <linearGradient id="linearGradient4442" x1="-454.52" x2="-454.52" y1="595.32" y2="206.62" gradientTransform="translate(368.34 -43.277)" gradientUnits="userSpaceOnUse">
   <stop stop-color="#fff" offset="0"/>
   <stop stop-color="#fff" stop-opacity="0" offset="1"/>
  </linearGradient>
 </defs>
 <metadata>
  <rdf:RDF>
   <cc:Work rdf:about="">
    <dc:format>image/svg+xml</dc:format>
    <dc:type rdf:resource="http://purl.org/dc/dcmitype/StillImage"/>
    <dc:title/>
   </cc:Work>
  </rdf:RDF>
 </metadata>
 <g transform="translate(86.179 -314.91)">
  <g transform="matrix(.15337 0 0 .15337 -72.961 293.71)">
   <path d="m-17.886 138.22h72.058c37.834 0 68.293 30.458 68.293 68.293v72.058c0 37.834-30.458 68.293-68.293 68.293h-72.058c-37.834 0-68.293-30.458-68.293-68.293v-72.058c0-37.834 30.458-68.293 68.293-68.293z" fill="#009fff"/>
   <path d="m-17.886 138.22h72.058c37.834 0 68.293 30.458 68.293 68.293v72.058c0 37.834-30.458 68.293-68.293 68.293h-72.058c-37.834 0-68.293-30.458-68.293-68.293v-72.058c0-37.834 30.458-68.293 68.293-68.293z" fill="url(#linearGradient4442)"/>
   <path d="m-1.0964 156.83c-3.9335-0.028-12.741 8.238-14.88 15.871-3.6005 12.849-3.4974 13.174 11.885 37.219 1.3004 2.0328 1.2436 4.5483-0.35142 15.524-1.0469 7.2034-3.1297 16.626-4.6292 20.944-1.4994 4.3184-2.5354 8.2077-2.3037 8.6403 0.23172 0.4328-0.5922 3.5095-1.8309 6.8357-1.2384 3.3261-2.5035 7.5858-2.8117 9.4666-0.30822 1.8807-1.0735 6.0813-1.7012 9.3349-0.62767 3.2532-1.0234 9.7665-0.87178 14.476 0.26887 8.5298 0.29628 8.5915 7.0998 17.042l6.8275 8.4832-1.2625 5.6855c-1.4522 6.5327-6.4401 14.459-10.903 17.326-1.6866 1.0835-2.8187 2.4376-2.512 3.0102 0.3066 0.5727 3.6632-0.1107 6.9396 0.066l6.135 0.016 2.3193-3.7465c1.6076-2.9427 2.9867-6.3351 3.0742-7.536 0.45572-6.5769 4.4019-9.7534 4.4137-3.5522 4e-3 1.5308 0.21828 5.5931 0.48162 9.0278 0.16518 1.9469 0.40024 3.1793 0.39635 4.8416 0.0278 0.053-0.31819 1.3271 0.51675 1.0361 2.4625-0.8583 1.0255 0.5124 2.8587-1.0531 0.36367-0.3105 0.58541-1.0402 0.71831-2.8412 1.2774-4.3431 2.6236-5.3197 5.1449-7.6455 2.1686-1.4675 2.1303-1.6599-0.99066-4.901-1.7871-1.856-4.6753-4.6393-6.4161-6.1816-3.0685-2.7187-3.1105-2.9452-1.4526-7.4439 1.3645-3.6979 1.5094-6.1391 0.71366-12.02-0.94929-7.0286-0.86849-7.4981 1.6727-9.8878 1.4674-1.3797 2.7071-3.1522 2.7559-3.9392 0.16296-2.6237 6.6174-13.318 8.3721-13.87 0.95154-0.2988 1.7809-1.3186 1.8397-2.2655 0.0587-0.9468 1.1801-3.3796 2.4908-5.4079 2.4337-3.7661 3.2897-12.421 1.9239-19.439-0.41798-2.1466 0.0217-4.0808 1.3193-5.8193 1.0736-1.436 1.7233-3.7361 1.4495-5.1315-0.64106-3.266 7.1201-16.627 10.09-17.371 1.1978-0.2999 2.2034-0.9552 2.2345-1.4573 0.0333-0.5022 5.6292-0.92241 12.438-0.9359 14.063-0.028 26.559-2.2172 37.1-6.4988 3.9777-1.6158 8.0097-2.8902 8.9591-2.8313 0.94914 0.059 2.4193-0.6279 3.2634-1.5255 0.84442-0.8976 2.5022-1.5727 3.6866-1.4992 1.1846 0.074 2.185-0.3822 2.2242-1.0128 0.10023-1.582-1.8276-1.5431-8.6444 0.17259-6.1258 1.5419-34.076 2.807-46.633 2.1099-4.0287-0.2233-9.1631-1.0114-11.408-1.7466-2.2441-0.7351-6.491-2.1012-9.4413-3.0371-2.95-0.93609-5.3246-2.3549-5.2751-3.1517 0.0499-0.79681-0.66238-1.7917-1.5792-2.2102-1.3031-0.59509-1.3778-1.3961-0.34625-3.6726 2.6034-5.7481 2.0715-10.416-1.5182-13.324-3.06-2.4782-3.7858-2.607-9.3948-1.6676-9.5294 1.5961-9.1931 1.441-8.1571 3.7476 0.51612 1.1497 1.1382 4.8972 1.3865 8.324l0.45474 6.2307-2.9807-0.9483c-1.6384-0.5206-3.9335-2.0302-5.102-3.3533-1.1683-1.323-2.6034-2.4345-3.1853-2.4706-2.1001-0.1303-3.2936-8.6134-2.2453-15.943 0.84148-5.8849 1.6857-7.9329 4.2375-10.286 1.7522-1.6156 3.2397-3.8295 3.3073-4.9186 0.11253-1.8152-0.49321-2.6963-1.5358-2.8618h-3e-3c-0.11634-0.018-0.23794-0.028-0.36484-0.029zm-5.5464 143.57c0.0456 0 0.091 0.01 0.13695 0.019 0.73443 0.1542 1.4789 1.2218 1.635 3.0747 0.14134 1.6694-0.39137 2.476-1.587 2.4019-1.1711-0.073-1.7344-1.1466-1.6149-3.0742 0.10451-1.6843 0.7452-2.4579 1.4299-2.421z" opacity=".107" stroke-width="1.1492"/>
   <path d="m-8.7535 155.79c-3.7233-0.5909-13.037 7.963-15.245 15.843-3.6005 12.849-3.4972 13.174 11.885 37.219 1.3004 2.0328 1.2435 4.5485-0.35147 15.524-1.047 7.2033-3.1295 16.626-4.6289 20.944-1.4994 4.3184-2.5358 8.2076-2.3041 8.6402 0.23174 0.4328-0.59178 3.5093-1.8305 6.8354-1.2385 3.3262-2.5037 7.5862-2.8118 9.467-0.30824 1.8807-1.0737 6.0814-1.7014 9.3349-0.62765 3.2532-1.0235 9.7664-0.87192 14.475 0.26886 8.5297 0.29658 8.5914 7.1002 17.042l6.8274 8.4834-1.2626 5.6852c-1.4522 6.5329-6.4403 14.46-10.903 17.326-1.6866 1.0835-2.8184 2.4376-2.5117 3.0102 0.30657 0.5726 3.5383 0.9212 6.8148 1.0983l5.7251 0.054 2.8541-4.8153c1.6076-2.9427 2.9862-6.3353 3.0738-7.5362 0.45569-6.5769 4.569-9.4529 5.1823-3.6191 0.98474 2.8944 0.80415 6.878 0.18108 9.9638-0.38672 1.9152-0.0913 3.6803-0.0952 5.3427 0.0277 0.053 0.0618 0.7237 0.11714 0.7162 2.5834-0.3562 2.1002 0 3.282-2.1033 2.0662-3.6737 4.0491-9.1685 5.8631-10.487 2.1686-1.4675 2.1305-1.6597-0.99044-4.9008-1.7872-1.856-4.6754-4.6394-6.4163-6.1817-3.0684-2.7187-3.1105-2.9451-1.4527-7.4439 1.3645-3.698 1.5097-6.1393 0.71403-12.02-0.94931-7.0286-0.86864-7.4982 1.6725-9.8878 1.4674-1.3797 2.7071-3.1523 2.7559-3.9393 0.16299-2.6237 6.6173-13.318 8.372-13.869 0.95149-0.2988 1.7811-1.3185 1.8398-2.2654 0.0587-0.94679 1.1804-3.3798 2.4911-5.4081 2.4337-3.7661 3.2893-12.421 1.9235-19.439-0.41798-2.1466 0.0221-4.081 1.3197-5.8195 1.0735-1.436 1.723-3.7358 1.4492-5.1312-0.64106-3.2661 7.1202-16.627 10.09-17.371 1.1978-0.2999 2.2034-0.9551 2.2345-1.4572 0.0332-0.5022 5.629-0.9227 12.438-0.9363 14.063-0.028 26.559-2.2171 37.1-6.4988 3.9777-1.6157 8.0094-2.89 8.9588-2.8311 0.94914 0.059 2.4194-0.6279 3.2635-1.5255 0.8444-0.89759 2.5023-1.5727 3.6866-1.4992 1.1846 0.074 2.185-0.38241 2.2241-1.013 0.10024-1.582-1.8278-1.543-8.6446 0.17271-6.1259 1.5419-34.076 2.8071-46.633 2.1099-4.0287-0.2232-9.1629-1.0115-11.407-1.7467-2.2442-0.73509-6.4912-2.101-9.4415-3.037-2.95-0.936-5.3247-2.3548-5.2752-3.1516 0.0499-0.79681-0.66247-1.792-1.5793-2.2105-1.3031-0.5951-1.3774-1.3959-0.34592-3.6725 2.6034-5.7481 2.0712-10.416-1.5185-13.324-3.0601-2.4782-3.7855-2.6072-9.3944-1.6678-9.5294 1.5961-9.1934 1.4412-8.1574 3.7478 0.51613 1.1497 1.1384 4.897 1.3866 8.3238l0.4546 6.2309-2.9809-0.9484c-1.6383-0.5206-3.9334-2.0303-5.102-3.3533-1.1683-1.323-2.6029-2.4348-3.1849-2.4709-2.1001-0.1303-3.294-8.6134-2.2458-15.943 0.84148-5.8849 1.6857-7.9327 4.2374-10.286 1.7523-1.6156 3.2399-3.8292 3.3075-4.9183 0.11252-1.8152-0.49339-2.6969-1.536-2.8623zm-5.7743 143.56c0.73444 0.1542 1.4785 1.2222 1.6347 3.0751 0.14134 1.6693-0.39138 2.4757-1.587 2.4015-1.1711-0.073-1.7344-1.1462-1.6147-3.0738 0.11147-1.7967 0.83262-2.557 1.567-2.4028zm7.1479 47.227c5.29e-4 0.01 7.94e-4 0.011 0.0011 0.014 0.02209 0 0.0444 0.01 0.0716 0.01-0.02209-0.01-0.0499-0.017-0.0731-0.022z" fill="#fff" stroke-width="1.1492"/>
  </g>
 </g>
</svg>
