<?xml version="1.0" encoding="UTF-8" standalone="no"?>
<svg
   xmlns:dc="http://purl.org/dc/elements/1.1/"
   xmlns:cc="http://creativecommons.org/ns#"
   xmlns:rdf="http://www.w3.org/1999/02/22-rdf-syntax-ns#"
   xmlns:svg="http://www.w3.org/2000/svg"
   xmlns="http://www.w3.org/2000/svg"
   xmlns:sodipodi="http://sodipodi.sourceforge.net/DTD/sodipodi-0.dtd"
   xmlns:inkscape="http://www.inkscape.org/namespaces/inkscape"
   inkscape:export-ydpi="24"
   inkscape:export-xdpi="24"
   inkscape:export-filename="D:\Desktop\AAA-Works\Veloce\Logo\logo-app.png"
   width="257.64786mm"
   height="257.64789mm"
   viewBox="0 0 257.64786 257.64789"
   version="1.1"
   id="svg8"
   inkscape:version="1.0 (4035a4fb49, 2020-05-01)"
   sodipodi:docname="logo-app.svg">
  <defs
     id="defs2" />
  <sodipodi:namedview
     fit-margin-bottom="0"
     fit-margin-right="0"
     fit-margin-left="0"
     fit-margin-top="0"
     id="base"
     pagecolor="#ffffff"
     bordercolor="#666666"
     borderopacity="1.0"
     inkscape:pageopacity="0.0"
     inkscape:pageshadow="2"
     inkscape:zoom="0.49497475"
     inkscape:cx="316.35199"
     inkscape:cy="545.9979"
     inkscape:document-units="mm"
     inkscape:current-layer="layer1"
     inkscape:document-rotation="0"
     showgrid="false"
     inkscape:window-width="1920"
     inkscape:window-height="1017"
     inkscape:window-x="1912"
     inkscape:window-y="-8"
     inkscape:window-maximized="1" />
  <metadata
     id="metadata5">
    <rdf:RDF>
      <cc:Work
         rdf:about="">
        <dc:format>image/svg+xml</dc:format>
        <dc:type
           rdf:resource="http://purl.org/dc/dcmitype/StillImage" />
        <dc:title />
      </cc:Work>
    </rdf:RDF>
  </metadata>
  <g
     transform="translate(429.55673,208.46487)"
     inkscape:label="Livello 1"
     inkscape:groupmode="layer"
     id="layer1">
    <g
       transform="translate(0,-2.9933936e-5)"
       id="g4457">
      <rect
         ry="85.547462"
         rx="85.547462"
         y="-208.46484"
         x="-429.55673"
         height="257.64783"
         width="257.64783"
         id="rect876"
         style="fill:#0d47a1;fill-opacity:1;stroke:none;stroke-width:4.665;stroke-linecap:round;stroke-linejoin:round;stroke-dashoffset:10.0157" />
      <path
         id="rect4449"
         style="opacity:0.203426;fill:#000000;fill-opacity:1;stroke:none;stroke-width:17.6315;stroke-linecap:round;stroke-linejoin:round;stroke-dashoffset:10.0157"
         d="m -1461.8516,-384.51953 c -48.4762,-0.0892 -102.0499,14.38665 -161.6699,53.0918 v 193.98632 c 0,179.124265 144.2039,323.33008 323.3281,323.33008 h 327.1309 c 179.12428,0 323.32812,-144.205815 323.32812,-323.33008 v -141.1289 c -222.47148,-107.14286 -262.79207,31.32292 -487.86912,27.14062 -79.2698,-1.47296 -178.8195,-132.82222 -324.2481,-133.08984 z"
         transform="scale(0.26458333)" />
    </g>
    <g
       style="stroke-width:2.82571"
       transform="matrix(0.35389318,0,0,0.35389318,-117.68255,-25.663587)"
       id="g917">
      <path
         id="path2727"
         style="fill:#ffffff;fill-opacity:1;stroke:none;stroke-width:34.0746;stroke-linecap:round;stroke-linejoin:miter;stroke-miterlimit:4;stroke-dasharray:none;stroke-dashoffset:10.0157;stroke-opacity:1"
         d="m -629.81862,-268.95292 c -3.12685,-1.6e-4 -5.73504,2.39007 -6.00739,5.50509 l -1.24023,14.19397 h -71.92171 c -4.34926,0 -7.85017,3.4848 -7.85017,7.81296 0,4.32807 3.50091,7.81296 7.85017,7.81296 h 88.58787 c 2.52637,0 4.55993,2.02013 4.55993,4.52996 0,2.50996 -2.03356,4.53047 -4.55993,4.53047 h -57.4461 c -2.49699,0 -4.5067,2.00023 -4.5067,4.485 0,2.48461 2.00971,4.48499 4.5067,4.48499 h 10.20868 36.50785 c 2.59139,0 4.67826,2.08671 4.67826,4.67827 0,2.59153 -2.08687,4.67775 -4.67826,4.67775 h -26.87847 c -4.34959,0 -7.8512,3.48424 -7.8512,7.81244 0,4.3282 3.50161,7.81245 7.8512,7.81245 h 4.29121 36.75848 c 2.52208,0 4.55322,2.03104 4.55322,4.55321 0,2.52231 -2.03114,4.55269 -4.55322,4.55269 h -60.12397 c -3.88644,0 -7.0156,2.32294 -7.0156,5.20847 0,2.88536 3.12916,5.20847 7.0156,5.20847 h 33.18247 l -1.06402,12.17186 h 288.4754 l 3.40291,-24.46259 c 0.24527,-1.76063 -0.29866,-3.53941 -1.48675,-4.86171 l -46.18373,-51.35966 c -1.14353,-1.27174 -2.77366,-1.99774 -4.48398,-1.99781 h -43.03974 v -21.32015 c 0,-3.33026 -2.70044,-6.02955 -6.03065,-6.02909 z m 65.14072,27.59419 a 21.855032,12.302776 0 0 1 15.58716,3.67884 36.710181,20.665132 0 0 1 32.67708,20.53983 36.710181,20.665132 0 0 1 -0.17105,1.99368 27.985728,15.753907 0 0 1 9.60252,11.87783 27.985728,15.753907 0 0 1 -27.98538,15.75408 27.985728,15.753907 0 0 1 -25.6005,-9.38961 36.710181,20.665132 0 0 1 -29.2654,-20.23598 36.710181,20.665132 0 0 1 3.83956,-9.20047 21.855032,12.302776 0 0 1 -0.53847,-2.71508 21.855032,12.302776 0 0 1 21.85448,-12.30312 z m 149.68129,18.90323 c 3.74785,-0.0136 7.56603,0.12485 10.1477,3.21376 l 19.30373,23.0973 c 2.95053,3.5303 4.19217,8.28787 -0.0382,8.28787 h -60.0692 c -4.23013,0 -7.63571,-3.69617 -7.63571,-8.28787 v -18.01595 c 0,-4.5917 3.40558,-8.28787 7.63571,-8.28787 v 0 h 29.05768 c 0.52875,0 1.06241,-0.005 1.59782,-0.007 z" />
      <path
         id="path2729"
         style="color:#000000;font-style:normal;font-variant:normal;font-weight:normal;font-stretch:normal;font-size:medium;line-height:normal;font-family:sans-serif;font-variant-ligatures:normal;font-variant-position:normal;font-variant-caps:normal;font-variant-numeric:normal;font-variant-alternates:normal;font-variant-east-asian:normal;font-feature-settings:normal;font-variation-settings:normal;text-indent:0;text-align:start;text-decoration:none;text-decoration-line:none;text-decoration-style:solid;text-decoration-color:#000000;letter-spacing:normal;word-spacing:normal;text-transform:none;writing-mode:lr-tb;direction:ltr;text-orientation:mixed;dominant-baseline:auto;baseline-shift:baseline;text-anchor:start;white-space:normal;shape-padding:0;shape-margin:0;inline-size:0;clip-rule:nonzero;display:inline;overflow:visible;visibility:visible;isolation:auto;mix-blend-mode:normal;color-interpolation:sRGB;color-interpolation-filters:linearRGB;solid-color:#000000;solid-opacity:1;vector-effect:none;fill:#ffffff;fill-opacity:1;fill-rule:nonzero;stroke:none;stroke-width:63.4604;stroke-linecap:round;stroke-linejoin:round;stroke-miterlimit:4;stroke-dasharray:none;stroke-dashoffset:10.0157;stroke-opacity:1;color-rendering:auto;image-rendering:auto;shape-rendering:auto;text-rendering:auto;enable-background:accumulate;stop-color:#000000"
         d="m -517.24461,-360.78142 v 0.002 c -112.85722,0 -204.93726,90.08254 -208.16508,202.16905 -11.19915,2.8014 -21.12362,12.28705 -23.58254,23.48126 l -20.64473,93.985981 c -2.93911,13.38027 5.85871,24.3205 19.55798,24.3205 h 74.94478 c 38.212,44.40502 94.80383,72.55526 157.88959,72.55526 63.08258,0 119.65544,-28.15143 157.85289,-72.55526 h 43.64693 c 13.69928,0 27.3035,-10.94023 30.24262,-24.3205 l 20.64472,-93.985911 c 2.9391,-13.38027 -5.85872,-24.32203 -19.55797,-24.32203 h -24.74113 c -1.13036,-34.40905 -10.62721,-66.7249 -26.52292,-94.97198 l -22.87821,1.74097 c 17.14929,27.14318 27.52501,59.00631 28.76363,93.23101 h -374.90734 c 1.30756,-38.60215 13.61344,-76.05438 38.76507,-101.66977 90.45601,-92.12419 178.03899,-66.51738 247.496,-25.8904 l -10.64638,24.07088 101.19331,-7.02076 -53.2629,-89.21213 -14.00638,25.46511 c -33.66501,-14.25783 -63.0138,-22.20396 -90.21982,-24.64242 -10.38799,-1.60014 -21.03013,-2.43086 -31.86212,-2.43086 z m -203.88782,212.18085 h 434.3337 c 5.34212,0 9.26115,2.82089 10.62984,7.05435 h -458.69293 c 3.22856,-4.23353 8.38721,-7.05435 13.72939,-7.05435 z m -16.93385,14.30662 c 0.0205,1e-5 0.0373,5.3e-4 0.0579,5.3e-4 h 461.85809 l -20.46128,93.150361 c -1.65987,7.5565 -9.01322,13.46999 -16.7499,13.46999 h -434.3342 c -7.73665,0 -12.49176,-5.91349 -10.83189,-13.46999 z m 91.22854,117.471391 h 259.18675 c -33.65895,32.15034 -79.29031,51.87694 -129.59362,51.87694 -50.30332,0 -95.93418,-19.7266 -129.59313,-51.87694 z" />
      <path
         id="path2731"
         style="fill:#ffffff;fill-opacity:1;stroke:none;stroke-width:0;stroke-linecap:round;stroke-linejoin:round;stroke-miterlimit:4;stroke-dasharray:none;stroke-dashoffset:10.0157;stroke-opacity:1"
         d="m -608.92684,-5.5198486 h 183.36211 c 2.72548,0 4.91964,1.40555 4.91964,3.15148 0,1.74590995 -2.19416,3.15144995 -4.91964,3.15144995 h -183.36211 c -2.72548,0 -4.91964,-1.40554 -4.91964,-3.15144995 0,-1.74593 2.19416,-3.15148 4.91964,-3.15148 z" />
      <g
         style="font-style:normal;font-variant:normal;font-weight:800;font-stretch:normal;font-size:10.5833px;line-height:125%;font-family:Manrope;-inkscape-font-specification:'Manrope Ultra-Bold';font-variant-ligatures:normal;font-variant-caps:normal;font-variant-numeric:normal;font-feature-settings:normal;text-align:start;letter-spacing:0.658421px;word-spacing:5.60652px;writing-mode:lr-tb;white-space:pre;shape-inside:url(#rect1440);fill:#ffffff;fill-opacity:1;stroke:#000000;stroke-width:1.98437;stroke-linecap:butt;stroke-linejoin:round;stroke-miterlimit:4;stroke-dasharray:none;stroke-opacity:1"
         id="g2769"
         transform="matrix(8.7225547,0,-2.3372015,8.8384541,-2000.4432,21927.707)"
         aria-label="VELOCE">
        <g
           style="opacity:1;fill:#ffffff;fill-opacity:1;stroke-width:1.98437"
           id="g2737">
          <path
             id="path2733"
             d="m -520.04279,-2494.1924 2.32833,7.62 h 2.14841 l 2.32833,-7.62 h -1.48167 l -1.93674,6.2654 -1.90499,-6.2654 z"
             style="color:#000000;font-style:normal;font-variant:normal;font-weight:normal;font-stretch:normal;font-size:medium;line-height:125%;font-family:Manrope;-inkscape-font-specification:'Manrope Ultra-Bold';font-variant-ligatures:normal;font-variant-position:normal;font-variant-caps:normal;font-variant-numeric:normal;font-variant-alternates:normal;font-variant-east-asian:normal;font-feature-settings:normal;font-variation-settings:normal;text-indent:0;text-align:start;text-decoration:none;text-decoration-line:none;text-decoration-style:solid;text-decoration-color:#000000;letter-spacing:0.658421px;word-spacing:5.60652px;text-transform:none;writing-mode:lr-tb;direction:ltr;text-orientation:mixed;dominant-baseline:auto;baseline-shift:baseline;text-anchor:start;white-space:normal;shape-padding:0;shape-margin:0;inline-size:0;clip-rule:nonzero;display:inline;overflow:visible;visibility:visible;isolation:auto;mix-blend-mode:normal;color-interpolation:sRGB;color-interpolation-filters:linearRGB;solid-color:#000000;solid-opacity:1;vector-effect:none;fill:#ffffff;fill-opacity:1;fill-rule:nonzero;stroke:none;stroke-width:1.98437;stroke-linecap:butt;stroke-linejoin:miter;stroke-miterlimit:4;stroke-dasharray:none;stroke-dashoffset:0;stroke-opacity:1;color-rendering:auto;image-rendering:auto;shape-rendering:auto;text-rendering:auto;enable-background:accumulate;stop-color:#000000;stop-opacity:1" />
          <path
             id="path2735"
             d="m -520.04297,-2494.543 a 0.35116262,0.35116262 0 0 0 -0.33594,0.4532 l 2.32813,7.6191 a 0.35116262,0.35116262 0 0 0 0.33594,0.25 h 2.14843 a 0.35116262,0.35116262 0 0 0 0.33594,-0.25 l 2.32813,-7.6191 a 0.35116262,0.35116262 0 0 0 -0.33594,-0.4532 h -1.48047 a 0.35116262,0.35116262 0 0 0 -0.33594,0.2461 l -1.59961,5.1699 -1.57031,-5.1679 a 0.35116262,0.35116262 0 0 0 -0.33594,-0.2481 z m 0.47461,0.7012 h 0.74609 l 1.83008,6.0176 a 0.35116262,0.35116262 0 0 0 0.67188,0 l 1.85937,-6.0176 h 0.74805 l -2.11328,6.918 h -1.62891 z"
             style="color:#000000;font-style:normal;font-variant:normal;font-weight:normal;font-stretch:normal;font-size:medium;line-height:125%;font-family:Manrope;-inkscape-font-specification:'Manrope Ultra-Bold';font-variant-ligatures:normal;font-variant-position:normal;font-variant-caps:normal;font-variant-numeric:normal;font-variant-alternates:normal;font-variant-east-asian:normal;font-feature-settings:normal;font-variation-settings:normal;text-indent:0;text-align:start;text-decoration:none;text-decoration-line:none;text-decoration-style:solid;text-decoration-color:#000000;letter-spacing:0.658421px;word-spacing:5.60652px;text-transform:none;writing-mode:lr-tb;direction:ltr;text-orientation:mixed;dominant-baseline:auto;baseline-shift:baseline;text-anchor:start;white-space:normal;shape-padding:0;shape-margin:0;inline-size:0;clip-rule:nonzero;display:inline;overflow:visible;visibility:visible;isolation:auto;mix-blend-mode:normal;color-interpolation:sRGB;color-interpolation-filters:linearRGB;solid-color:#000000;solid-opacity:1;vector-effect:none;fill:#ffffff;fill-opacity:1;fill-rule:nonzero;stroke:none;stroke-width:1.98437;stroke-linecap:butt;stroke-linejoin:miter;stroke-miterlimit:4;stroke-dasharray:none;stroke-dashoffset:0;stroke-opacity:1;color-rendering:auto;image-rendering:auto;shape-rendering:auto;text-rendering:auto;enable-background:accumulate;stop-color:#000000;stop-opacity:1" />
        </g>
        <g
           style="opacity:1;fill:#ffffff;fill-opacity:1;stroke-width:1.98437"
           id="g2743">
          <path
             id="path2739"
             d="m -511.7925,-2494.1924 v 7.62 h 4.97415 v -1.3441 h -3.53482 v -1.9579 h 2.89982 v -1.3441 h -2.89982 v -1.6298 h 3.53482 v -1.3441 z"
             style="color:#000000;font-style:normal;font-variant:normal;font-weight:normal;font-stretch:normal;font-size:medium;line-height:125%;font-family:Manrope;-inkscape-font-specification:'Manrope Ultra-Bold';font-variant-ligatures:normal;font-variant-position:normal;font-variant-caps:normal;font-variant-numeric:normal;font-variant-alternates:normal;font-variant-east-asian:normal;font-feature-settings:normal;font-variation-settings:normal;text-indent:0;text-align:start;text-decoration:none;text-decoration-line:none;text-decoration-style:solid;text-decoration-color:#000000;letter-spacing:0.658421px;word-spacing:5.60652px;text-transform:none;writing-mode:lr-tb;direction:ltr;text-orientation:mixed;dominant-baseline:auto;baseline-shift:baseline;text-anchor:start;white-space:normal;shape-padding:0;shape-margin:0;inline-size:0;clip-rule:nonzero;display:inline;overflow:visible;visibility:visible;isolation:auto;mix-blend-mode:normal;color-interpolation:sRGB;color-interpolation-filters:linearRGB;solid-color:#000000;solid-opacity:1;vector-effect:none;fill:#ffffff;fill-opacity:1;fill-rule:nonzero;stroke:none;stroke-width:1.98437;stroke-linecap:butt;stroke-linejoin:miter;stroke-miterlimit:4;stroke-dasharray:none;stroke-dashoffset:0;stroke-opacity:1;color-rendering:auto;image-rendering:auto;shape-rendering:auto;text-rendering:auto;enable-background:accumulate;stop-color:#000000;stop-opacity:1" />
          <path
             id="path2741"
             d="m -511.79297,-2494.543 a 0.35116262,0.35116262 0 0 0 -0.35156,0.3496 v 7.6211 a 0.35116262,0.35116262 0 0 0 0.35156,0.3516 h 4.97461 a 0.35116262,0.35116262 0 0 0 0.35156,-0.3516 v -1.3437 a 0.35116262,0.35116262 0 0 0 -0.35156,-0.3516 h -3.18359 v -1.2558 h 2.54883 a 0.35116262,0.35116262 0 0 0 0.35156,-0.3516 v -1.3438 a 0.35116262,0.35116262 0 0 0 -0.35156,-0.3515 h -2.54883 v -0.9277 h 3.18359 a 0.35116262,0.35116262 0 0 0 0.35156,-0.3497 v -1.3457 a 0.35116262,0.35116262 0 0 0 -0.35156,-0.3496 z m 0.35156,0.7012 h 4.27149 v 0.6426 h -3.1836 a 0.35116262,0.35116262 0 0 0 -0.35156,0.3515 v 1.6289 a 0.35116262,0.35116262 0 0 0 0.35156,0.3516 h 2.54883 v 0.6426 h -2.54883 a 0.35116262,0.35116262 0 0 0 -0.35156,0.3496 v 1.959 a 0.35116262,0.35116262 0 0 0 0.35156,0.3515 h 3.1836 v 0.6407 h -4.27149 z"
             style="color:#000000;font-style:normal;font-variant:normal;font-weight:normal;font-stretch:normal;font-size:medium;line-height:125%;font-family:Manrope;-inkscape-font-specification:'Manrope Ultra-Bold';font-variant-ligatures:normal;font-variant-position:normal;font-variant-caps:normal;font-variant-numeric:normal;font-variant-alternates:normal;font-variant-east-asian:normal;font-feature-settings:normal;font-variation-settings:normal;text-indent:0;text-align:start;text-decoration:none;text-decoration-line:none;text-decoration-style:solid;text-decoration-color:#000000;letter-spacing:0.658421px;word-spacing:5.60652px;text-transform:none;writing-mode:lr-tb;direction:ltr;text-orientation:mixed;dominant-baseline:auto;baseline-shift:baseline;text-anchor:start;white-space:normal;shape-padding:0;shape-margin:0;inline-size:0;clip-rule:nonzero;display:inline;overflow:visible;visibility:visible;isolation:auto;mix-blend-mode:normal;color-interpolation:sRGB;color-interpolation-filters:linearRGB;solid-color:#000000;solid-opacity:1;vector-effect:none;fill:#ffffff;fill-opacity:1;fill-rule:nonzero;stroke:none;stroke-width:1.98437;stroke-linecap:butt;stroke-linejoin:miter;stroke-miterlimit:4;stroke-dasharray:none;stroke-dashoffset:0;stroke-opacity:1;color-rendering:auto;image-rendering:auto;shape-rendering:auto;text-rendering:auto;enable-background:accumulate;stop-color:#000000;stop-opacity:1" />
        </g>
        <g
           style="opacity:1;fill:#ffffff;fill-opacity:1;stroke-width:1.98437"
           id="g2749">
          <path
             id="path2745"
             d="m -504.78575,-2494.1924 v 7.62 h 4.72015 v -1.3441 h -3.28082 v -6.2759 z"
             style="color:#000000;font-style:normal;font-variant:normal;font-weight:normal;font-stretch:normal;font-size:medium;line-height:125%;font-family:Manrope;-inkscape-font-specification:'Manrope Ultra-Bold';font-variant-ligatures:normal;font-variant-position:normal;font-variant-caps:normal;font-variant-numeric:normal;font-variant-alternates:normal;font-variant-east-asian:normal;font-feature-settings:normal;font-variation-settings:normal;text-indent:0;text-align:start;text-decoration:none;text-decoration-line:none;text-decoration-style:solid;text-decoration-color:#000000;letter-spacing:0.658421px;word-spacing:5.60652px;text-transform:none;writing-mode:lr-tb;direction:ltr;text-orientation:mixed;dominant-baseline:auto;baseline-shift:baseline;text-anchor:start;white-space:normal;shape-padding:0;shape-margin:0;inline-size:0;clip-rule:nonzero;display:inline;overflow:visible;visibility:visible;isolation:auto;mix-blend-mode:normal;color-interpolation:sRGB;color-interpolation-filters:linearRGB;solid-color:#000000;solid-opacity:1;vector-effect:none;fill:#ffffff;fill-opacity:1;fill-rule:nonzero;stroke:none;stroke-width:1.98437;stroke-linecap:butt;stroke-linejoin:miter;stroke-miterlimit:4;stroke-dasharray:none;stroke-dashoffset:0;stroke-opacity:1;color-rendering:auto;image-rendering:auto;shape-rendering:auto;text-rendering:auto;enable-background:accumulate;stop-color:#000000;stop-opacity:1" />
          <path
             id="path2747"
             d="m -504.78516,-2494.543 a 0.35116262,0.35116262 0 0 0 -0.35156,0.3496 v 7.6211 a 0.35116262,0.35116262 0 0 0 0.35156,0.3516 h 4.71875 a 0.35116262,0.35116262 0 0 0 0.35157,-0.3516 v -1.3437 a 0.35116262,0.35116262 0 0 0 -0.35157,-0.3516 h -2.92968 v -5.9258 a 0.35116262,0.35116262 0 0 0 -0.34961,-0.3496 z m 0.34961,0.7012 h 0.73828 v 5.9258 a 0.35116262,0.35116262 0 0 0 0.35157,0.3515 h 2.92968 v 0.6407 h -4.01953 z"
             style="color:#000000;font-style:normal;font-variant:normal;font-weight:normal;font-stretch:normal;font-size:medium;line-height:125%;font-family:Manrope;-inkscape-font-specification:'Manrope Ultra-Bold';font-variant-ligatures:normal;font-variant-position:normal;font-variant-caps:normal;font-variant-numeric:normal;font-variant-alternates:normal;font-variant-east-asian:normal;font-feature-settings:normal;font-variation-settings:normal;text-indent:0;text-align:start;text-decoration:none;text-decoration-line:none;text-decoration-style:solid;text-decoration-color:#000000;letter-spacing:0.658421px;word-spacing:5.60652px;text-transform:none;writing-mode:lr-tb;direction:ltr;text-orientation:mixed;dominant-baseline:auto;baseline-shift:baseline;text-anchor:start;white-space:normal;shape-padding:0;shape-margin:0;inline-size:0;clip-rule:nonzero;display:inline;overflow:visible;visibility:visible;isolation:auto;mix-blend-mode:normal;color-interpolation:sRGB;color-interpolation-filters:linearRGB;solid-color:#000000;solid-opacity:1;vector-effect:none;fill:#ffffff;fill-opacity:1;fill-rule:nonzero;stroke:none;stroke-width:1.98437;stroke-linecap:butt;stroke-linejoin:miter;stroke-miterlimit:4;stroke-dasharray:none;stroke-dashoffset:0;stroke-opacity:1;color-rendering:auto;image-rendering:auto;shape-rendering:auto;text-rendering:auto;enable-background:accumulate;stop-color:#000000;stop-opacity:1" />
        </g>
        <g
           style="opacity:1;fill:#ffffff;fill-opacity:1;stroke-width:1.98437"
           id="g2755">
          <path
             id="path2751"
             d="m -497.4071,-2486.9058 c 0.55562,0.3281 1.21178,0.4922 1.9632,0.4922 0.75141,0 1.40229,-0.1641 1.9632,-0.4922 0.55562,-0.328 0.98425,-0.7937 1.28058,-1.397 0.29633,-0.5979 0.44979,-1.2911 0.44979,-2.0796 0,-0.7831 -0.15346,-1.4763 -0.44979,-2.0796 -0.29633,-0.5979 -0.72496,-1.0636 -1.28058,-1.3917 -0.56091,-0.3281 -1.21179,-0.4974 -1.9632,-0.4974 -0.75142,0 -1.40758,0.1693 -1.9632,0.4974 -0.56092,0.3281 -0.98954,0.7938 -1.28587,1.3917 -0.29634,0.6033 -0.4445,1.2965 -0.4445,2.0796 0,0.7885 0.14816,1.4817 0.4445,2.0796 0.29633,0.6033 0.72495,1.069 1.28587,1.397 z m 3.15911,-1.1694 c -0.32808,0.2117 -0.72495,0.3175 -1.19591,0.3069 -0.71437,-0.011 -1.25412,-0.2434 -1.61925,-0.7038 -0.37041,-0.4604 -0.55033,-1.0954 -0.55033,-1.9103 0,-0.5344 0.0794,-1.0001 0.24342,-1.3917 0.15875,-0.3916 0.40216,-0.6985 0.73025,-0.9101 0.32279,-0.2117 0.71966,-0.3175 1.19591,-0.3122 0.70908,0.01 1.24883,0.2487 1.61924,0.709 0.36513,0.4604 0.55034,1.0954 0.55034,1.905 0,0.5398 -0.0847,1.0054 -0.24342,1.397 -0.16404,0.3916 -0.40746,0.6985 -0.73025,0.9102 z"
             style="color:#000000;font-style:normal;font-variant:normal;font-weight:normal;font-stretch:normal;font-size:medium;line-height:125%;font-family:Manrope;-inkscape-font-specification:'Manrope Ultra-Bold';font-variant-ligatures:normal;font-variant-position:normal;font-variant-caps:normal;font-variant-numeric:normal;font-variant-alternates:normal;font-variant-east-asian:normal;font-feature-settings:normal;font-variation-settings:normal;text-indent:0;text-align:start;text-decoration:none;text-decoration-line:none;text-decoration-style:solid;text-decoration-color:#000000;letter-spacing:0.658421px;word-spacing:5.60652px;text-transform:none;writing-mode:lr-tb;direction:ltr;text-orientation:mixed;dominant-baseline:auto;baseline-shift:baseline;text-anchor:start;white-space:normal;shape-padding:0;shape-margin:0;inline-size:0;clip-rule:nonzero;display:inline;overflow:visible;visibility:visible;isolation:auto;mix-blend-mode:normal;color-interpolation:sRGB;color-interpolation-filters:linearRGB;solid-color:#000000;solid-opacity:1;vector-effect:none;fill:#ffffff;fill-opacity:1;fill-rule:nonzero;stroke:none;stroke-width:1.98437;stroke-linecap:butt;stroke-linejoin:miter;stroke-miterlimit:4;stroke-dasharray:none;stroke-dashoffset:0;stroke-opacity:1;color-rendering:auto;image-rendering:auto;shape-rendering:auto;text-rendering:auto;enable-background:accumulate;stop-color:#000000;stop-opacity:1" />
          <path
             id="path2753"
             d="m -495.44336,-2494.7031 c -0.80347,0 -1.52666,0.1847 -2.14062,0.5469 -0.61863,0.3618 -1.09989,0.8854 -1.42383,1.539 -0.32285,0.6573 -0.48047,1.407 -0.48047,2.2344 0,0.8325 0.15685,1.5834 0.48047,2.2363 0.32387,0.6588 0.80559,1.1815 1.42383,1.543 0.61535,0.3629 1.33877,0.541 2.14062,0.541 0.80253,0 1.52157,-0.1789 2.14063,-0.541 0.61241,-0.3615 1.09409,-0.8842 1.41796,-1.543 v 0 c 0.32233,-0.6511 0.48633,-1.401 0.48633,-2.2344 0,-0.829 -0.16422,-1.5786 -0.48633,-2.2344 -0.32394,-0.6536 -0.80516,-1.1772 -1.41796,-1.539 -0.61766,-0.3613 -1.33648,-0.5469 -2.14063,-0.5469 z m 0,0.7031 c 0.69795,0 1.2794,0.1549 1.7832,0.4492 0.49844,0.2944 0.87582,0.702 1.14454,1.2442 0.27055,0.5508 0.41406,1.1866 0.41406,1.9238 0,0.7429 -0.14427,1.3795 -0.41406,1.9238 -0.26879,0.5472 -0.64613,0.9538 -1.14454,1.248 -0.50241,0.2935 -1.08363,0.4434 -1.7832,0.4434 -0.7003,0 -1.28962,-0.1508 -1.78516,-0.4434 a 0.35116262,0.35116262 0 0 0 -0.002,0 c -0.50318,-0.2942 -0.8777,-0.7008 -1.14648,-1.248 a 0.35116262,0.35116262 0 0 0 -0.002,0 c -0.26906,-0.5429 -0.4082,-1.1793 -0.4082,-1.9238 0,-0.7388 0.14032,-1.3745 0.41016,-1.9238 h -0.002 c 0.26872,-0.5422 0.64522,-0.9498 1.14844,-1.2442 a 0.35116262,0.35116262 0 0 0 0.002,0 c 0.49694,-0.2934 1.08648,-0.4492 1.78516,-0.4492 z m 0.004,0.6523 c -0.52972,-0.01 -1.00262,0.1152 -1.39063,0.3692 -0.39036,0.2517 -0.68146,0.622 -0.86328,1.0683 -2.3e-4,6e-4 2.3e-4,0 0,0 -0.18626,0.4455 -0.27148,0.9569 -0.27148,1.5254 0,0.8658 0.19523,1.589 0.6289,2.1289 3.7e-4,4e-4 -3.6e-4,0 0,0 0.43411,0.546 1.09993,0.8219 1.88672,0.834 0.52711,0.012 1.0014,-0.1089 1.39258,-0.3613 a 0.35116262,0.35116262 0 0 0 0.002,0 c 0.38523,-0.2527 0.67472,-0.6229 0.86133,-1.0684 a 0.35116262,0.35116262 0 0 0 0.002,0 c 0.17878,-0.4411 0.26758,-0.9528 0.26758,-1.5293 0,-0.8632 -0.19812,-1.5848 -0.625,-2.1231 a 0.35116262,0.35116262 0 0 0 -0.002,0 c -0.43769,-0.5439 -1.10333,-0.8288 -1.88867,-0.8399 z m -0.01,0.7032 c 0.63204,0.01 1.04658,0.2023 1.34961,0.5781 0.30277,0.3825 0.47461,0.9284 0.47461,1.6836 0,0.5023 -0.0805,0.9218 -0.21875,1.2637 -2.1e-4,5e-4 2.1e-4,0 0,0 -0.14111,0.3349 -0.33907,0.5762 -0.59766,0.7461 -4.1e-4,3e-4 4.2e-4,0 0,0 -0.26382,0.1692 -0.58188,0.2592 -0.99414,0.25 a 0.35116262,0.35116262 0 0 0 -0.004,0 c -0.64097,-0.01 -1.05147,-0.1969 -1.34766,-0.5704 a 0.35116262,0.35116262 0 0 0 -0.002,0 c -0.30638,-0.3808 -0.47266,-0.9282 -0.47266,-1.6914 0,-0.4996 0.0736,-0.9185 0.21484,-1.2559 a 0.35116262,0.35116262 0 0 0 0.002,0 c 0.1358,-0.335 0.33109,-0.5754 0.5957,-0.7461 a 0.35116262,0.35116262 0 0 0 0.002,0 c 0.25682,-0.1685 0.57711,-0.2583 0.99805,-0.2539 z"
             style="color:#000000;font-style:normal;font-variant:normal;font-weight:normal;font-stretch:normal;font-size:medium;line-height:125%;font-family:Manrope;-inkscape-font-specification:'Manrope Ultra-Bold';font-variant-ligatures:normal;font-variant-position:normal;font-variant-caps:normal;font-variant-numeric:normal;font-variant-alternates:normal;font-variant-east-asian:normal;font-feature-settings:normal;font-variation-settings:normal;text-indent:0;text-align:start;text-decoration:none;text-decoration-line:none;text-decoration-style:solid;text-decoration-color:#000000;letter-spacing:0.658421px;word-spacing:5.60652px;text-transform:none;writing-mode:lr-tb;direction:ltr;text-orientation:mixed;dominant-baseline:auto;baseline-shift:baseline;text-anchor:start;white-space:normal;shape-padding:0;shape-margin:0;inline-size:0;clip-rule:nonzero;display:inline;overflow:visible;visibility:visible;isolation:auto;mix-blend-mode:normal;color-interpolation:sRGB;color-interpolation-filters:linearRGB;solid-color:#000000;solid-opacity:1;vector-effect:none;fill:#ffffff;fill-opacity:1;fill-rule:nonzero;stroke:none;stroke-width:1.98437;stroke-linecap:butt;stroke-linejoin:miter;stroke-miterlimit:4;stroke-dasharray:none;stroke-dashoffset:0;stroke-opacity:1;color-rendering:auto;image-rendering:auto;shape-rendering:auto;text-rendering:auto;enable-background:accumulate;stop-color:#000000;stop-opacity:1" />
        </g>
        <g
           style="opacity:1;fill:#ffffff;fill-opacity:1;stroke-width:1.98437"
           id="g2761">
          <path
             id="path2757"
             d="m -488.72853,-2486.9058 c 0.55563,0.3281 1.21179,0.4922 1.96321,0.4922 0.57149,0 1.09008,-0.095 1.55574,-0.2911 0.46038,-0.1905 0.85196,-0.4709 1.17475,-0.8308 0.32279,-0.3598 0.5662,-0.7937 0.73025,-1.2911 l -1.44992,-0.4022 c -0.14816,0.471 -0.38629,0.8308 -0.72495,1.0848 -0.33867,0.254 -0.76729,0.3757 -1.28587,0.3757 -0.47625,0 -0.87842,-0.1058 -1.20121,-0.3175 -0.32808,-0.2117 -0.5715,-0.5133 -0.73554,-0.9049 -0.16404,-0.3915 -0.24341,-0.8519 -0.24341,-1.3917 0,-0.5344 0.0794,-0.9948 0.24341,-1.3864 0.16404,-0.3916 0.40746,-0.6932 0.73554,-0.9049 0.32279,-0.2116 0.72496,-0.3227 1.20121,-0.3227 0.51858,0 0.9472,0.127 1.28587,0.381 0.33866,0.254 0.57679,0.6138 0.72495,1.0795 l 1.44992,-0.4022 c -0.16405,-0.4974 -0.40746,-0.9261 -0.73025,-1.2859 -0.32279,-0.3598 -0.71437,-0.6403 -1.17475,-0.8361 -0.46566,-0.1905 -0.98425,-0.291 -1.55574,-0.291 -0.75142,0 -1.40758,0.1693 -1.96321,0.4974 -0.56091,0.3281 -0.98953,0.7938 -1.28587,1.3917 -0.29633,0.6033 -0.44449,1.2965 -0.44449,2.0796 0,0.7885 0.14816,1.4817 0.44449,2.0796 0.29634,0.6033 0.72496,1.069 1.28587,1.397 z"
             style="color:#000000;font-style:normal;font-variant:normal;font-weight:normal;font-stretch:normal;font-size:medium;line-height:125%;font-family:Manrope;-inkscape-font-specification:'Manrope Ultra-Bold';font-variant-ligatures:normal;font-variant-position:normal;font-variant-caps:normal;font-variant-numeric:normal;font-variant-alternates:normal;font-variant-east-asian:normal;font-feature-settings:normal;font-variation-settings:normal;text-indent:0;text-align:start;text-decoration:none;text-decoration-line:none;text-decoration-style:solid;text-decoration-color:#000000;letter-spacing:0.658421px;word-spacing:5.60652px;text-transform:none;writing-mode:lr-tb;direction:ltr;text-orientation:mixed;dominant-baseline:auto;baseline-shift:baseline;text-anchor:start;white-space:normal;shape-padding:0;shape-margin:0;inline-size:0;clip-rule:nonzero;display:inline;overflow:visible;visibility:visible;isolation:auto;mix-blend-mode:normal;color-interpolation:sRGB;color-interpolation-filters:linearRGB;solid-color:#000000;solid-opacity:1;vector-effect:none;fill:#ffffff;fill-opacity:1;fill-rule:nonzero;stroke:none;stroke-width:1.98437;stroke-linecap:butt;stroke-linejoin:miter;stroke-miterlimit:4;stroke-dasharray:none;stroke-dashoffset:0;stroke-opacity:1;color-rendering:auto;image-rendering:auto;shape-rendering:auto;text-rendering:auto;enable-background:accumulate;stop-color:#000000;stop-opacity:1" />
          <path
             id="path2759"
             d="m -486.76562,-2494.7031 c -0.80417,0 -1.52632,0.1841 -2.14063,0.5469 -0.61861,0.3618 -1.09793,0.8854 -1.42187,1.539 a 0.35116262,0.35116262 0 0 0 -0.002,0 c -0.32283,0.6573 -0.48047,1.407 -0.48047,2.2344 0,0.8325 0.15882,1.5834 0.48243,2.2363 0.32387,0.6582 0.80404,1.1817 1.42187,1.543 0.61571,0.3636 1.33808,0.541 2.14063,0.541 0.60972,0 1.17569,-0.1023 1.68945,-0.3184 0.50786,-0.2101 0.94623,-0.5224 1.30273,-0.9199 0.3579,-0.3989 0.62535,-0.8782 0.80274,-1.416 a 0.35116262,0.35116262 0 0 0 -0.24024,-0.4473 l -1.44922,-0.4023 a 0.35116262,0.35116262 0 0 0 -0.42968,0.2324 c -0.13121,0.4171 -0.32508,0.7023 -0.59961,0.9082 -0.26798,0.201 -0.61253,0.3067 -1.07617,0.3067 -0.42425,0 -0.75201,-0.092 -1.00782,-0.2598 a 0.35116262,0.35116262 0 0 0 -0.002,0 c -0.2669,-0.1722 -0.46248,-0.4094 -0.60352,-0.7461 -0.14172,-0.3382 -0.21484,-0.7504 -0.21484,-1.2558 0,-0.4996 0.0731,-0.9116 0.21484,-1.25 0.14104,-0.3367 0.33662,-0.5739 0.60352,-0.7461 a 0.35116262,0.35116262 0 0 0 0.002,0 c 0.25809,-0.1691 0.58617,-0.2636 1.00782,-0.2636 0.46125,0 0.80632,0.1081 1.07617,0.3105 0.27453,0.2059 0.46856,0.4924 0.59961,0.9043 a 0.35116262,0.35116262 0 0 0 0.42968,0.2324 l 1.44922,-0.4023 a 0.35116262,0.35116262 0 0 0 0.24024,-0.4492 c -0.17762,-0.5386 -0.44596,-1.0125 -0.80274,-1.4102 -0.35647,-0.3973 -0.79329,-0.7088 -1.29883,-0.9238 a 0.35116262,0.35116262 0 0 0 -0.004,0 c -0.51016,-0.2087 -1.0768,-0.3183 -1.68945,-0.3183 z m 0,0.7031 c 0.52891,0 0.99961,0.094 1.41992,0.2656 0.41405,0.1766 0.76033,0.4226 1.04882,0.7442 0.20672,0.2304 0.33508,0.5345 0.47071,0.832 l -0.79492,0.2207 c -0.16822,-0.3638 -0.34059,-0.7281 -0.64844,-0.959 -0.40749,-0.3056 -0.92019,-0.4512 -1.49609,-0.4512 -0.53086,0 -1.00509,0.1269 -1.39258,0.3809 -0.3881,0.2511 -0.68052,0.6169 -0.86719,1.0625 -0.18629,0.4448 -0.27149,0.9523 -0.27149,1.5215 0,0.5742 0.0851,1.0826 0.27149,1.5273 0.18667,0.4457 0.47909,0.8114 0.86719,1.0625 0.38977,0.2557 0.86432,0.375 1.39258,0.375 0.57351,0 1.08672,-0.1383 1.49609,-0.4453 0.30844,-0.2313 0.48204,-0.5974 0.65039,-0.9648 l 0.79492,0.2207 c -0.13607,0.3003 -0.26623,0.6078 -0.47266,0.8379 -0.28907,0.3223 -0.63397,0.5694 -1.04687,0.7402 a 0.35116262,0.35116262 0 0 0 -0.002,0 c -0.41711,0.1756 -0.88735,0.2617 -1.41992,0.2617 -0.7003,0 -1.28961,-0.1508 -1.78516,-0.4434 -0.50318,-0.2942 -0.87964,-0.7008 -1.14844,-1.248 -0.26906,-0.5429 -0.4082,-1.1793 -0.4082,-1.9238 0,-0.7388 0.13838,-1.3745 0.4082,-1.9238 0.26873,-0.5422 0.64523,-0.9498 1.14844,-1.2442 0.49695,-0.2934 1.08648,-0.4492 1.78516,-0.4492 z"
             style="color:#000000;font-style:normal;font-variant:normal;font-weight:normal;font-stretch:normal;font-size:medium;line-height:125%;font-family:Manrope;-inkscape-font-specification:'Manrope Ultra-Bold';font-variant-ligatures:normal;font-variant-position:normal;font-variant-caps:normal;font-variant-numeric:normal;font-variant-alternates:normal;font-variant-east-asian:normal;font-feature-settings:normal;font-variation-settings:normal;text-indent:0;text-align:start;text-decoration:none;text-decoration-line:none;text-decoration-style:solid;text-decoration-color:#000000;letter-spacing:0.658421px;word-spacing:5.60652px;text-transform:none;writing-mode:lr-tb;direction:ltr;text-orientation:mixed;dominant-baseline:auto;baseline-shift:baseline;text-anchor:start;white-space:normal;shape-padding:0;shape-margin:0;inline-size:0;clip-rule:nonzero;display:inline;overflow:visible;visibility:visible;isolation:auto;mix-blend-mode:normal;color-interpolation:sRGB;color-interpolation-filters:linearRGB;solid-color:#000000;solid-opacity:1;vector-effect:none;fill:#ffffff;fill-opacity:1;fill-rule:nonzero;stroke:none;stroke-width:1.98437;stroke-linecap:butt;stroke-linejoin:miter;stroke-miterlimit:4;stroke-dasharray:none;stroke-dashoffset:0;stroke-opacity:1;color-rendering:auto;image-rendering:auto;shape-rendering:auto;text-rendering:auto;enable-background:accumulate;stop-color:#000000;stop-opacity:1" />
        </g>
        <g
           style="opacity:1;fill:#ffffff;fill-opacity:1;stroke-width:1.98437"
           id="g2767">
          <path
             id="path2763"
             d="m -481.48101,-2494.1924 v 7.62 h 4.97416 v -1.3441 h -3.53483 v -1.9579 h 2.89983 v -1.3441 h -2.89983 v -1.6298 h 3.53483 v -1.3441 z"
             style="color:#000000;font-style:normal;font-variant:normal;font-weight:normal;font-stretch:normal;font-size:medium;line-height:125%;font-family:Manrope;-inkscape-font-specification:'Manrope Ultra-Bold';font-variant-ligatures:normal;font-variant-position:normal;font-variant-caps:normal;font-variant-numeric:normal;font-variant-alternates:normal;font-variant-east-asian:normal;font-feature-settings:normal;font-variation-settings:normal;text-indent:0;text-align:start;text-decoration:none;text-decoration-line:none;text-decoration-style:solid;text-decoration-color:#000000;letter-spacing:0.658421px;word-spacing:5.60652px;text-transform:none;writing-mode:lr-tb;direction:ltr;text-orientation:mixed;dominant-baseline:auto;baseline-shift:baseline;text-anchor:start;white-space:normal;shape-padding:0;shape-margin:0;inline-size:0;clip-rule:nonzero;display:inline;overflow:visible;visibility:visible;isolation:auto;mix-blend-mode:normal;color-interpolation:sRGB;color-interpolation-filters:linearRGB;solid-color:#000000;solid-opacity:1;vector-effect:none;fill:#ffffff;fill-opacity:1;fill-rule:nonzero;stroke:none;stroke-width:1.98437;stroke-linecap:butt;stroke-linejoin:miter;stroke-miterlimit:4;stroke-dasharray:none;stroke-dashoffset:0;stroke-opacity:1;color-rendering:auto;image-rendering:auto;shape-rendering:auto;text-rendering:auto;enable-background:accumulate;stop-color:#000000;stop-opacity:1" />
          <path
             id="path2765"
             d="m -481.48047,-2494.543 a 0.35116262,0.35116262 0 0 0 -0.35156,0.3496 v 7.6211 a 0.35116262,0.35116262 0 0 0 0.35156,0.3516 h 4.97266 a 0.35116262,0.35116262 0 0 0 0.35156,-0.3516 v -1.3437 a 0.35116262,0.35116262 0 0 0 -0.35156,-0.3516 h -3.1836 v -1.2558 h 2.54883 a 0.35116262,0.35116262 0 0 0 0.35156,-0.3516 v -1.3438 a 0.35116262,0.35116262 0 0 0 -0.35156,-0.3515 h -2.54883 v -0.9277 h 3.1836 a 0.35116262,0.35116262 0 0 0 0.35156,-0.3497 v -1.3457 a 0.35116262,0.35116262 0 0 0 -0.35156,-0.3496 z m 0.35156,0.7012 h 4.27149 v 0.6426 h -3.1836 a 0.35116262,0.35116262 0 0 0 -0.35156,0.3515 v 1.6289 a 0.35116262,0.35116262 0 0 0 0.35156,0.3516 h 2.54883 v 0.6426 h -2.54883 a 0.35116262,0.35116262 0 0 0 -0.35156,0.3496 v 1.959 a 0.35116262,0.35116262 0 0 0 0.35156,0.3515 h 3.1836 v 0.6407 h -4.27149 z"
             style="color:#000000;font-style:normal;font-variant:normal;font-weight:normal;font-stretch:normal;font-size:medium;line-height:125%;font-family:Manrope;-inkscape-font-specification:'Manrope Ultra-Bold';font-variant-ligatures:normal;font-variant-position:normal;font-variant-caps:normal;font-variant-numeric:normal;font-variant-alternates:normal;font-variant-east-asian:normal;font-feature-settings:normal;font-variation-settings:normal;text-indent:0;text-align:start;text-decoration:none;text-decoration-line:none;text-decoration-style:solid;text-decoration-color:#000000;letter-spacing:0.658421px;word-spacing:5.60652px;text-transform:none;writing-mode:lr-tb;direction:ltr;text-orientation:mixed;dominant-baseline:auto;baseline-shift:baseline;text-anchor:start;white-space:normal;shape-padding:0;shape-margin:0;inline-size:0;clip-rule:nonzero;display:inline;overflow:visible;visibility:visible;isolation:auto;mix-blend-mode:normal;color-interpolation:sRGB;color-interpolation-filters:linearRGB;solid-color:#000000;solid-opacity:1;vector-effect:none;fill:#ffffff;fill-opacity:1;fill-rule:nonzero;stroke:none;stroke-width:1.98437;stroke-linecap:butt;stroke-linejoin:miter;stroke-miterlimit:4;stroke-dasharray:none;stroke-dashoffset:0;stroke-opacity:1;color-rendering:auto;image-rendering:auto;shape-rendering:auto;text-rendering:auto;enable-background:accumulate;stop-color:#000000;stop-opacity:1" />
        </g>
      </g>
      <rect
         ry="0.15639031"
         rx="3.5384483"
         y="-141.54605"
         x="-741.54669"
         height="7.2524185"
         width="469.83438"
         id="rect2771"
         style="fill:#ffffff;fill-opacity:1;stroke:none;stroke-width:54.4834;stroke-linecap:round;stroke-linejoin:round;stroke-miterlimit:4;stroke-dasharray:none;stroke-dashoffset:10.0157;stroke-opacity:1"
         inkscape:export-xdpi="17.603878"
         inkscape:export-ydpi="17.603878" />
      <path
         id="path2773"
         style="fill:#ffffff;fill-opacity:1;stroke:none;stroke-width:0;stroke-linecap:round;stroke-linejoin:round;stroke-miterlimit:4;stroke-dasharray:none;stroke-dashoffset:10.0157;stroke-opacity:1"
         d="m -559.17391,10.432381 h 83.85619 c 2.72548,0 4.91964,1.40555 4.91964,3.15148 0,1.74591 -2.19416,3.15148 -4.91964,3.15148 h -83.85619 c -2.72548,0 -4.91964,-1.40557 -4.91964,-3.15148 0,-1.74593 2.19416,-3.15148 4.91964,-3.15148 z" />
      <path
         id="path2775"
         style="color:#000000;font-style:normal;font-variant:normal;font-weight:normal;font-stretch:normal;font-size:medium;line-height:125%;font-family:Manrope;-inkscape-font-specification:'Manrope Ultra-Bold';font-variant-ligatures:normal;font-variant-position:normal;font-variant-caps:normal;font-variant-numeric:normal;font-variant-alternates:normal;font-variant-east-asian:normal;font-feature-settings:normal;font-variation-settings:normal;text-indent:0;text-align:start;text-decoration:none;text-decoration-line:none;text-decoration-style:solid;text-decoration-color:#000000;letter-spacing:0.658421px;word-spacing:5.60652px;text-transform:none;writing-mode:lr-tb;direction:ltr;text-orientation:mixed;dominant-baseline:auto;baseline-shift:baseline;text-anchor:start;white-space:normal;shape-padding:0;shape-margin:0;inline-size:0;clip-rule:nonzero;display:inline;overflow:visible;visibility:visible;isolation:auto;mix-blend-mode:normal;color-interpolation:sRGB;color-interpolation-filters:linearRGB;solid-color:#000000;solid-opacity:1;vector-effect:none;fill:#ffffff;fill-opacity:1;fill-rule:nonzero;stroke:none;stroke-width:17.4233;stroke-linecap:butt;stroke-linejoin:miter;stroke-miterlimit:4;stroke-dasharray:none;stroke-dashoffset:0;stroke-opacity:1;color-rendering:auto;image-rendering:auto;shape-rendering:auto;text-rendering:auto;enable-background:accumulate;stop-color:#000000"
         d="m -491.35112,-121.611 c -7.00831,0 -13.74836,1.632 -19.95019,4.83329 -6.24164,3.19775 -11.6629,7.82598 -16.01608,13.60279 -4.35232,5.809509 -7.47957,12.435718 -9.41337,19.748669 -1.94572,7.358009 -2.33243,13.994579 -1.0356,19.765195 1.28523,5.822765 4.26516,10.442839 8.8129,13.637917 4.51925,3.2075 10.41302,4.78163 17.40721,4.78163 7.00009,0 13.69016,-1.58123 19.93623,-4.78163 6.1867,-3.195078 11.61003,-7.815152 15.97475,-13.637917 4.33329,-5.754714 7.5162,-12.382685 9.46401,-19.748659 1.93755,-7.32708 2.25719,-13.95241 0.98031,-19.748665 -1.29799,-5.77681 -4.27146,-10.40452 -8.77104,-13.60228 -4.54316,-3.19333 -10.37953,-4.83381 -17.39376,-4.83381 z m 75.69202,0 c -7.01442,0 -13.74391,1.6267 -19.95019,4.83329 -6.24147,3.19775 -11.64584,7.82598 -15.99903,13.60279 a 2.6997001,3.5214462 47.371027 0 0 -0.0175,0 c -4.35215,5.809509 -7.47905,12.435718 -9.41287,19.748669 -1.94572,7.358009 -2.31579,13.994579 -1.01904,19.765195 1.28662,5.817473 4.25175,10.444612 8.79637,13.637917 4.52075,3.21366 10.4069,4.78163 17.40719,4.78163 5.31831,0 10.49383,-0.90432 15.48019,-2.81429 4.92088,-1.85698 9.47476,-4.617508 13.51339,-8.130778 4.0541,-3.525652 7.50728,-7.761684 10.31152,-12.515003 a 2.6997001,3.5214462 47.371027 0 0 -1.05008,-3.953246 l -11.70056,-3.555841 a 2.6997001,3.5214462 47.371027 0 0 -4.29122,2.054119 c -2.11934,3.686519 -4.4772,6.207072 -7.35304,8.026903 -2.80725,1.776518 -6.05964,2.710947 -10.10377,2.710947 -3.70055,0 -6.34434,-0.813408 -8.18349,-2.296504 a 2.6997001,3.5214462 47.371027 0 0 -0.0169,0 c -1.92558,-1.521962 -3.07742,-3.618521 -3.52073,-6.594422 -0.44572,-2.989156 -0.11978,-6.632099 1.06143,-11.099059 1.16769,-4.415684 2.76783,-8.056986 4.79507,-11.047915 2.01716,-2.975901 4.27784,-5.072441 7.00836,-6.594422 a 2.6997001,3.5214462 47.371027 0 0 0.0169,0 c 2.64642,-1.49458 5.72932,-2.33009 9.40718,-2.33009 4.02328,0 6.78024,0.95564 8.66098,2.74454 1.91336,1.819834 2.93621,4.351712 3.11661,7.992262 a 2.6997001,3.5214462 47.371027 0 0 3.20497,2.054145 l 13.58107,-3.555338 a 2.6997001,3.5214462 47.371027 0 0 3.14555,-3.970298 c -0.29049,-4.760391 -1.52371,-8.949291 -3.70623,-12.464351 -2.18075,-3.51152 -5.26288,-6.26461 -9.16998,-8.16488 a 2.6997001,3.5214462 47.371027 0 0 -0.0351,0 c -3.96214,-1.84459 -8.64857,-2.81326 -13.99244,-2.81326 z m -290.63754,1.4149 a 2.6997001,3.5214462 47.371027 0 0 -3.98942,4.00544 l 2.49959,67.341111 a 2.6997001,3.5214462 47.371027 0 0 2.34611,2.20967 h 18.73942 a 2.6997001,3.5214462 47.371027 0 0 3.51503,-2.20967 l 38.11447,-67.341111 a 2.6997001,3.5214462 47.371027 0 0 -1.8712,-4.00544 h -12.91343 a 2.6997001,3.5214462 47.371027 0 0 -3.50521,2.17506 l -26.03613,45.693848 -1.61851,-45.676278 a 2.6997001,3.5214462 47.371027 0 0 -2.35024,-2.19263 z m 71.96098,0 a 2.6997001,3.5214462 47.371027 0 0 -3.88348,3.08973 l -17.81235,67.358671 a 2.6997001,3.5214462 47.371027 0 0 2.24482,3.10782 h 43.39115 a 2.6997001,3.5214462 47.371027 0 0 3.88865,-3.10782 l 3.14038,-11.876277 a 2.6997001,3.5214462 47.371027 0 0 -2.24483,-3.107293 h -27.76884 l 2.9347,-11.099589 h 22.23224 a 2.6997001,3.5214462 47.371027 0 0 3.88865,-3.107293 l 3.14037,-11.877304 a 2.6997001,3.5214462 47.371027 0 0 -2.24482,-3.106791 h -22.23224 l 2.16835,-8.199504 h 27.76885 a 2.6997001,3.5214462 47.371027 0 0 3.884,-3.09077 l 3.14503,-11.89385 a 2.6997001,3.5214462 47.371027 0 0 -2.24948,-3.08973 z m 61.12598,0 a 2.6997001,3.5214462 47.371027 0 0 -3.88348,3.08973 l -17.81235,67.358671 a 2.6997001,3.5214462 47.371027 0 0 2.24483,3.10782 h 41.15976 a 2.6997001,3.5214462 47.371027 0 0 3.88813,-3.10782 l 3.14038,-11.876277 a 2.6997001,3.5214462 47.371027 0 0 -2.24483,-3.107293 h -25.55399 l 13.8498,-52.375101 a 2.6997001,3.5214462 47.371027 0 0 -2.23242,-3.08973 z m 203.27648,0 a 2.6997001,3.5214462 47.371027 0 0 -3.8835,3.08973 l -17.81233,67.358671 a 2.6997001,3.5214462 47.371027 0 0 2.24483,3.10782 h 43.3741 a 2.6997001,3.5214462 47.371027 0 0 3.88863,-3.10782 l 3.14039,-11.876277 a 2.6997001,3.5214462 47.371027 0 0 -2.24483,-3.107293 h -27.76937 l 2.93524,-11.099589 h 22.23222 a 2.6997001,3.5214462 47.371027 0 0 3.88866,-3.107293 l 3.14037,-11.877304 a 2.6997001,3.5214462 47.371027 0 0 -2.24483,-3.106791 h -22.23223 l 2.16834,-8.199504 h 27.76884 a 2.6997001,3.5214462 47.371027 0 0 3.88401,-3.09077 l 3.14502,-11.89385 a 2.6997001,3.5214462 47.371027 0 0 -2.24946,-3.08973 z m -126.2817,16.77985 c 5.48962,0.0884 8.65621,1.78776 10.42106,5.10925 1.74696,3.380713 1.96972,8.205946 0.20465,14.880749 -1.17398,4.439549 -2.85673,8.146944 -4.86171,11.168829 -2.01359,2.959974 -4.30403,5.092753 -6.95669,6.594423 -2.69664,1.495451 -5.6813,2.291 -9.25576,2.209694 a 2.6997001,3.5214462 47.371027 0 0 -0.0346,0 c -5.56752,-0.0884 -8.71152,-1.740403 -10.42211,-5.041556 a 2.6997001,3.5214462 47.371027 0 0 -0.0176,0 c -1.78241,-3.365686 -1.95325,-8.203962 -0.1695,-14.949488 1.16766,-4.415684 2.78847,-8.117999 4.80901,-11.100091 a 2.6997001,3.5214462 47.371027 0 0 0.0176,0 c 1.96747,-2.96088 4.23258,-5.08571 6.93962,-6.59443 a 2.6997001,3.5214462 47.371027 0 0 0.0175,0 c 2.63396,-1.48928 5.63777,-2.28268 9.29918,-2.24379 z" />
    </g>
  </g>
</svg>
